<svg    class="cloud-icon"
        height="30"
        viewBox="0 0 40 30"
        y="0px"
        x="0px"
        version="1.1">

  <g transform="translate(-3, -4) scale(0.4)">
    <path class="cloud-bg" style="fill-opacity:1" d="M 74,42 C 74.875,19.625 46.188,16.387 39.7,33.3 32.818,31.774 27.092,36.412 26.2,42.1 9.5,44 11.882,68 28,68 l 46,0 c 17.21,0 17.214,-26 0,-26 z" />
    <path class="cloud-border" d="M 74,42 C 74.875,19.625 46.188,16.387 39.7,33.3 32.818,31.774 27.092,36.412 26.2,42.1 9.5,44 11.882,68 28,68 l 46,0 c 17.21,0 17.214,-26 0,-26 z m 0,22 -46,0 C 17.02,64 14.229,46 30,46 29.5,38.75 35.875,35.125 42,38.7 48.303,19.795 70,26.125 70,41 l 0,5 4,0 c 11.92,0 11.925,18 0,18 z" />
    <g class="offline-bar">
      <path style="fill:none;fill-rule:evenodd;stroke:#ffffff;stroke-width:3.29999995;stroke-linecap:round;stroke-linejoin:round;stroke-miterlimit:4;stroke-dasharray:none;stroke-opacity:1" d="M 24.531512,22.005103 72.096428,75.936976" />
      <path style="fill:none;fill-rule:evenodd;stroke:#000000;stroke-width:3.29999995;stroke-linecap:round;stroke-linejoin:round;stroke-miterlimit:4;stroke-dasharray:none;stroke-opacity:1" d="M 22.531512,24.005103 70.096428,77.936976"/>
    </g>
    <g class="fetching-icon" transform="translate(45, 38) scale(0.20)">
      <g>
        <g transform="translate(-7.5,-5.9428928)">
          <path d="m 16.19,55.612 0,-0.001 c -0.313,-1.896 -0.464,-3.777 -0.465,-5.634 0,-16.454 11.908,-31.001 28.689,-33.76 1.898,-0.315 3.778,-0.466 5.633,-0.467 8.764,-0.003 16.988,3.394 23.179,9.096 L 63.074,24.522 c -2.27,-0.072 -4.17,1.71 -4.242,3.979 -0.073,2.271 1.709,4.171 3.979,4.243 l 18.61,0.594 c 1.039,0.238 2.167,0.083 3.135,-0.537 1.206,-0.773 1.798,-2.074 1.819,-3.407 l 0.003,-0.012 0,-0.002 0.613,-19.194 c 0.073,-2.269 -1.709,-4.169 -3.98,-4.241 -2.27,-0.072 -4.169,1.71 -4.242,3.98 l -0.275,8.624 C 70.858,11.641 60.808,7.527 50.047,7.524 47.744,7.523 45.413,7.711 43.073,8.1 22.263,11.541 7.5,29.536 7.5,49.977 c 0,2.303 0.187,4.634 0.574,6.974 0.37,2.24 2.486,3.758 4.727,3.389 2.242,-0.372 3.759,-2.488 3.389,-4.728 z" />
          <path d="m 87.198,39.712 c -2.241,0.37 -3.757,2.488 -3.387,4.729 l 0,-0.001 c 0.313,1.894 0.463,3.774 0.464,5.631 0,16.452 -11.908,31 -28.689,33.766 -1.892,0.312 -3.774,0.461 -5.631,0.462 -8.793,0.003 -17.044,-3.415 -23.242,-9.148 l 10.289,0.329 c 2.27,0.072 4.17,-1.71 4.242,-3.979 0.073,-2.271 -1.709,-4.171 -3.979,-4.243 l -19.327,-0.618 0,0 -0.188,0.032 c -0.792,-0.02 -1.594,0.112 -2.311,0.573 -1.486,0.952 -2.123,2.694 -1.773,4.324 l -0.582,18.244 c -0.073,2.269 1.709,4.169 3.98,4.241 2.271,0.072 4.17,-1.71 4.242,-3.98 l 0.272,-8.516 c 7.628,6.867 17.648,10.961 28.377,10.964 2.299,10e-4 4.63,-0.185 6.972,-0.57 C 77.736,88.502 92.5,70.508 92.5,50.07 c 0,-2.303 -0.187,-4.632 -0.573,-6.971 -0.371,-2.241 -2.488,-3.758 -4.729,-3.387 z" />

        </g>
        <animateTransform attributeName="transform"
                          attributeType="XML"
                          type="rotate"
                          from="0 42.5 44"
                          to="360 42.5 44"
                          dur="2s"
                          repeatCount="indefinite"/>
      </g>
    </g>
  </g>
</svg>