<svg width="30" height="30" viewBox="0 0 30 30" version="1.1" class="offline-icon">

  <circle class="sync-circle" cx="15" cy="15" r="8"/>

  <!--<g class="sync-icon" transform="translate(-1,-1)" style="fill-rule:nonzero">-->
    <!--<path class="sync-check" d="m 11.408327,15.288897 -0.269652,0.404478 -0.02247,-0.01498 L 11.1,15.7 10.711103,15.408327 7.7226499,13.416025 l -0.4160252,-0.27735 0.5547002,-0.83205 0.4160252,0.27735 2.6064459,1.73763 L 15.1,8.7 l 0.3,-0.4 0.8,0.6 -0.3,0.4 -4.491673,5.988897 z"/>-->
    <!--<path d="M 4.7378134,20.262187 3,22 3,18 7,18 5.4465231,19.553477 C 7.2016016,21.077514 9.4930718,22 12,22 17.522847,22 22,17.522847 22,12 22,10.532654 21.683961,9.1391225 21.116238,7.8837619 L 21.867291,7.1327092 C 22.592482,8.6000608 23,10.25244 23,12 23,18.075132 18.075132,23 12,23 9.2168997,23 6.6752032,21.966428 4.7378134,20.262187 Z"/>-->
    <!--<path d="M 19.262187,3.7378134 21,2 21,6 17,6 18.553477,4.4465231 C 16.798398,2.9224856 14.506928,2 12,2 6.4771525,2 2,6.4771525 2,12 c 0,1.467346 0.3160392,2.860878 0.8837619,4.116238 L 2.1327092,16.867291 C 1.4075185,15.399939 1,13.74756 1,12 1,5.9248677 5.9248677,1 12,1 c 2.7831,0 5.324797,1.0335722 7.262187,2.7378134 z"/>-->
  <!--</g>-->

  <g class="pending-icon">
    <text id="pending-count" text-anchor="middle" x="15" y="18.5" style="font-size:11px;font-weight:bold; fill:#ffffff">0</text>
  </g>

  <g class="sync-check" transform="translate(0,-1) scale(1.25)">
    <path class="sync-check"  d="m 11.408327,15.288897 -0.269652,0.404478 -0.02247,-0.01498 L 11.1,15.7 10.711103,15.408327 7.7226499,13.416025 l -0.4160252,-0.27735 0.5547002,-0.83205 0.4160252,0.27735 2.6064459,1.73763 L 15.1,8.7 l 0.3,-0.4 0.8,0.6 -0.3,0.4 -4.491673,5.988897 z"/>
  </g>
</svg>