<svg xmlns="http://www.w3.org/2000/svg" height="30" width="30" viewBox="0 0 97.4 96.1"><path d="M87.6 43.8 86.6 36.4 92.8 27.3 83.6 14.1 72.2 18.5 65.7 14.1 64 3.9 49 2 43.8 12 36.6 14.1 27.4 7.8l-12.1 6.3 3.6 10.9-4.5 7.5-11.2 1.9-1.6 15.6 9.6 3.2c0 0 3.8 10.1 2.8 10.1-1 0-6.9 8.8-6.9 8.8l7.8 12.3 13.1-5.2 6.2 5.2 1 11.4 15.4 2.3 4.6-10.1 6.9-1.6 10.5 5.9L84 84.4 80.7 73.7 84 67.2 96.4 64.6 99 49 87.6 43.8ZM50.3 71c-12.2 0-22.1-9.4-22.1-21 0-11.6 9.9-21 22.1-21 12.2 0 22.1 9.4 22.1 21 0 11.6-9.9 21-22.1 21z"/></svg>