<?xml version="1.0" encoding="UTF-8" standalone="no"?>
<svg
   xmlns="http://www.w3.org/2000/svg"
   height="30"
   width="30"
   viewBox="0 0 97.4 96.1"
   version="1.1">

  <path d="m 74.857417,43.667057 -0.701271,-5.189407 4.347881,-6.381567 -6.451694,-9.25678 -7.994492,3.085593 -4.558262,-3.085593 -1.192161,-7.152966 -10.519068,-1.332415 -3.64661,7.012712 -5.049152,1.472669 -6.451695,-4.418008 -8.485381,4.418008 2.524576,7.643856 -3.15572,5.259534 -7.854237,1.332415 -1.122034,10.93983 6.732203,2.244068 c 0,0 2.664831,7.082839 1.963559,7.082839 -0.701271,0 -4.838771,6.171186 -4.838771,6.171186 l 5.469916,8.625635 9.186652,-3.64661 4.347881,3.64661 0.701271,7.994491 10.799576,1.612924 3.225848,-7.082839 4.838771,-1.122033 7.363347,4.137499 7.994491,-5.540042 -2.314195,-7.503601 2.314195,-4.558263 8.695763,-1.823305 1.823305,-10.93983 -7.994492,-3.64661 z M 48.700003,62.741633 c -8.555508,0 -15.498093,-6.591949 -15.498093,-14.726695 0,-8.134746 6.942585,-14.726694 15.498093,-14.726694 8.555508,0 15.498093,6.591948 15.498093,14.726694 0,8.134746 -6.942585,14.726695 -15.498093,14.726695 z"/>
</svg>
