<?xml version="1.0" encoding="UTF-8" standalone="no"?>
<svg
   xmlns:dc="http://purl.org/dc/elements/1.1/"
   xmlns:cc="http://creativecommons.org/ns#"
   xmlns:rdf="http://www.w3.org/1999/02/22-rdf-syntax-ns#"
   xmlns:svg="http://www.w3.org/2000/svg"
   xmlns="http://www.w3.org/2000/svg"
   xmlns:sodipodi="http://sodipodi.sourceforge.net/DTD/sodipodi-0.dtd"
   xmlns:inkscape="http://www.inkscape.org/namespaces/inkscape"
   version="1.1"
   id="Layer_1"
   x="0px"
   y="0px"
   width="30px"
   height="30px"
   viewBox="0 0 30 30"
   enable-background="new 0 0 30 30"
   xml:space="preserve"
   inkscape:version="0.91 r13725"
   sodipodi:docname="add.svg"><metadata
     id="metadata33"><rdf:RDF><cc:Work
         rdf:about=""><dc:format>image/svg+xml</dc:format><dc:type
           rdf:resource="http://purl.org/dc/dcmitype/StillImage" /></cc:Work></rdf:RDF></metadata><defs
     id="defs31" /><sodipodi:namedview
     pagecolor="#ffffff"
     bordercolor="#666666"
     borderopacity="1"
     objecttolerance="10"
     gridtolerance="10"
     guidetolerance="10"
     inkscape:pageopacity="0"
     inkscape:pageshadow="2"
     inkscape:window-width="1920"
     inkscape:window-height="1056"
     id="namedview29"
     showgrid="false"
     inkscape:zoom="7.8666667"
     inkscape:cx="15"
     inkscape:cy="15"
     inkscape:window-x="0"
     inkscape:window-y="24"
     inkscape:window-maximized="1"
     inkscape:current-layer="Layer_1" /><rect
     x="-131"
     y="-29"
     display="none"
     fill="#000000"
     width="198"
     height="87"
     id="rect3" /><g
     id="g17"><path
       d="M15,0C6.716,0,0,6.718,0,15.001C0,23.286,6.716,30,15,30s15-6.714,15-14.999C30,6.718,23.284,0,15,0z M15,27.166   c-6.708,0-12.165-5.457-12.165-12.165C2.835,8.293,8.292,2.835,15,2.835s12.166,5.458,12.166,12.166   C27.166,21.709,21.708,27.166,15,27.166z"
       id="path19" /><polygon
       points="17,13 17,5.5 13,5.5 13,13 5.5,13 5.5,17.001 13,17.001 13,24.501 17,24.501 17,17.001 24.5,17.001 24.5,13  "
       id="polygon21" /></g></svg>