<?xml version="1.0" encoding="UTF-8" standalone="no"?>
<svg
   xmlns:dc="http://purl.org/dc/elements/1.1/"
   xmlns:cc="http://creativecommons.org/ns#"
   xmlns:rdf="http://www.w3.org/1999/02/22-rdf-syntax-ns#"
   xmlns:svg="http://www.w3.org/2000/svg"
   xmlns="http://www.w3.org/2000/svg"
   xmlns:sodipodi="http://sodipodi.sourceforge.net/DTD/sodipodi-0.dtd"
   xmlns:inkscape="http://www.inkscape.org/namespaces/inkscape"
   version="1.1"
   x="0px"
   y="0px"
   viewBox="0 0 96 96"
   enable-background="new 0 0 96 96"
   xml:space="preserve"
   id="svg4209"
   inkscape:version="0.91 r13725"
   sodipodi:docname="count.svg"
   width="96"
   height="96"><metadata
     id="metadata4223"><rdf:RDF><cc:Work
         rdf:about=""><dc:format>image/svg+xml</dc:format><dc:type
           rdf:resource="http://purl.org/dc/dcmitype/StillImage" /><dc:title></dc:title></cc:Work></rdf:RDF></metadata><defs
     id="defs4221" /><sodipodi:namedview
     pagecolor="#ffffff"
     bordercolor="#666666"
     borderopacity="1"
     objecttolerance="10"
     gridtolerance="10"
     guidetolerance="10"
     inkscape:pageopacity="0"
     inkscape:pageshadow="2"
     inkscape:window-width="1920"
     inkscape:window-height="1056"
     id="namedview4219"
     showgrid="false"
     fit-margin-top="0"
     fit-margin-left="0"
     fit-margin-right="0"
     fit-margin-bottom="0"
     inkscape:zoom="7.3916667"
     inkscape:cx="48"
     inkscape:cy="43.503762"
     inkscape:window-x="0"
     inkscape:window-y="24"
     inkscape:window-maximized="1"
     inkscape:current-layer="svg4209" /><g
     id="g4211"><path
       d="m 88.861,84.379 0,-84.379 -6.396,0 0,18.829 -16.508,0 c -0.551,-3.18 -3.314,-5.601 -6.652,-5.601 -3.338,0 -6.104,2.421 -6.654,5.601 l -18.028,0 c -0.549,-3.18 -3.314,-5.601 -6.652,-5.601 -3.338,0 -6.102,2.421 -6.652,5.601 l -7.779,0 0,-18.829 -6.4,0 0,84.379 -7.14,0 0,11.621 96,0 0,-11.621 -7.139,0 z M 56.566,14.785 c 1.723,-0.966 3.531,-1.013 4.041,-0.104 0.51,0.909 -0.475,2.427 -2.197,3.394 -1.723,0.965 -3.533,1.012 -4.043,0.104 -0.508,-0.909 0.477,-2.429 2.199,-3.394 z m -31.334,0 c 1.725,-0.966 3.533,-1.013 4.041,-0.104 0.51,0.908 -0.473,2.427 -2.197,3.394 -1.723,0.965 -3.531,1.012 -4.041,0.104 -0.51,-0.908 0.475,-2.429 2.197,-3.394 z m -11.693,5.906 7.709,0 c 0.352,3.402 3.227,6.056 6.723,6.056 3.496,0 6.371,-2.653 6.723,-6.056 l 17.889,0 c 0.352,3.402 3.227,6.056 6.723,6.056 3.496,0 6.369,-2.653 6.721,-6.056 l 16.439,0 0,21.103 -19.599,0 c -0.455,-3.292 -3.271,-5.829 -6.688,-5.829 -3.418,0 -6.234,2.537 -6.689,5.829 l -1.56,0 c -0.455,-3.292 -3.271,-5.829 -6.688,-5.829 -3.418,0 -6.234,2.537 -6.689,5.829 l -1.561,0 c -0.455,-3.292 -3.271,-5.829 -6.688,-5.829 -3.418,0 -6.234,2.537 -6.689,5.829 l -6.076,0 0,-21.103 z m 39.902,16.83 c 1.723,-0.966 3.531,-1.012 4.041,-0.104 0.51,0.908 -0.475,2.428 -2.197,3.394 -1.723,0.965 -3.533,1.012 -4.043,0.104 -0.508,-0.908 0.477,-2.428 2.199,-3.394 z m -14.937,0 c 1.723,-0.966 3.531,-1.012 4.041,-0.104 0.51,0.908 -0.475,2.428 -2.197,3.394 -1.723,0.965 -3.533,1.012 -4.043,0.104 -0.508,-0.908 0.476,-2.428 2.199,-3.394 z m -14.938,0 c 1.723,-0.966 3.531,-1.012 4.041,-0.104 0.51,0.908 -0.475,2.428 -2.197,3.394 -1.723,0.965 -3.533,1.012 -4.043,0.104 -0.508,-0.908 0.477,-2.428 2.199,-3.394 z m -10.027,6.134 6.076,0 c 0.455,3.292 3.271,5.829 6.689,5.829 3.416,0 6.232,-2.537 6.688,-5.829 l 1.561,0 c 0.455,3.292 3.271,5.829 6.689,5.829 3.416,0 6.232,-2.537 6.688,-5.829 l 1.561,0 c 0.455,3.292 3.271,5.829 6.689,5.829 3.416,0 6.232,-2.537 6.688,-5.829 l 19.598,0 0,21.103 -6.08,0 c -0.455,-3.291 -3.27,-5.828 -6.688,-5.828 -3.416,0 -6.232,2.537 -6.688,5.828 l -12.684,0 c -0.455,-3.291 -3.271,-5.828 -6.688,-5.828 -3.418,0 -6.234,2.537 -6.689,5.828 l -2.291,0 c -0.455,-3.291 -3.27,-5.828 -6.688,-5.828 -3.416,0 -6.232,2.537 -6.688,5.828 l -7.744,0 0,-21.103 z m 53.42,16.831 c 1.725,-0.967 3.533,-1.014 4.041,-0.105 0.51,0.908 -0.473,2.428 -2.197,3.395 -1.723,0.965 -3.531,1.012 -4.041,0.104 -0.51,-0.908 0.474,-2.429 2.197,-3.394 z m -26.059,0 c 1.723,-0.967 3.531,-1.014 4.041,-0.105 0.51,0.909 -0.475,2.428 -2.197,3.395 -1.723,0.965 -3.533,1.012 -4.043,0.104 -0.508,-0.909 0.477,-2.429 2.199,-3.394 z m -15.668,0 c 1.725,-0.967 3.533,-1.014 4.041,-0.105 0.51,0.908 -0.473,2.428 -2.197,3.395 -1.723,0.965 -3.531,1.012 -4.041,0.104 -0.51,-0.908 0.475,-2.429 2.197,-3.394 z m -11.693,23.893 0,-17.76 7.744,0 c 0.455,3.291 3.271,5.828 6.688,5.828 3.418,0 6.234,-2.537 6.688,-5.828 l 2.291,0 c 0.455,3.291 3.271,5.828 6.689,5.828 3.416,0 6.232,-2.537 6.688,-5.828 l 12.683,0 c 0.455,3.291 3.271,5.828 6.688,5.828 3.418,0 6.234,-2.537 6.688,-5.828 l 6.08,0 0,17.76 -68.927,0 z"
       id="path4213"
       inkscape:connector-curvature="0" /></g></svg>