<?xml version="1.0" encoding="UTF-8" standalone="no"?>
<svg
   xmlns:dc="http://purl.org/dc/elements/1.1/"
   xmlns:cc="http://creativecommons.org/ns#"
   xmlns:rdf="http://www.w3.org/1999/02/22-rdf-syntax-ns#"
   xmlns:svg="http://www.w3.org/2000/svg"
   xmlns="http://www.w3.org/2000/svg"
   xmlns:sodipodi="http://sodipodi.sourceforge.net/DTD/sodipodi-0.dtd"
   xmlns:inkscape="http://www.inkscape.org/namespaces/inkscape"
   version="1.1"
   x="0px"
   y="0px"
   viewBox="0 0 100 125"
   id="svg7332"
   inkscape:version="0.91 r13725"
   sodipodi:docname="database-closed.svg">
  <metadata
     id="metadata7346">
    <rdf:RDF>
      <cc:Work
         rdf:about="">
        <dc:format>image/svg+xml</dc:format>
        <dc:type
           rdf:resource="http://purl.org/dc/dcmitype/StillImage" />
      </cc:Work>
    </rdf:RDF>
  </metadata>
  <defs
     id="defs7344" />
  <sodipodi:namedview
     pagecolor="#ffffff"
     bordercolor="#666666"
     borderopacity="1"
     objecttolerance="10"
     gridtolerance="10"
     guidetolerance="10"
     inkscape:pageopacity="0"
     inkscape:pageshadow="2"
     inkscape:window-width="1855"
     inkscape:window-height="1056"
     id="namedview7342"
     showgrid="false"
     inkscape:zoom="1.888"
     inkscape:cx="50"
     inkscape:cy="62.5"
     inkscape:window-x="65"
     inkscape:window-y="24"
     inkscape:window-maximized="1"
     inkscape:current-layer="g7334" />
  <g
     transform="translate(0,-952.36218)"
     id="g7334">
    <path
       style="color:#000000;enable-background:accumulate;fill:#4a96d9;fill-opacity:1"
       d="m 49.999977,967.36216 c -17.673114,0 -32.000004,6.2681 -32.000004,14 0,7.7321 14.32689,14 32.000004,14 17.67311,0 32,-6.2679 32,-14 0,-7.7319 -14.32689,-14 -32,-14 z m -31.968754,23.75 0,8.2188 c 1.74918,2.64824 5.359,4.61584 8,5.78124 5.9952,2.5694 14.53538,4.25 23.968754,4.25 9.43336,0 17.97355,-1.6806 23.96875,-4.25 2.64895,-1.2441 6.27195,-2.9736 8.03125,-5.84383 l 0,-8.15621 c -1.7908,1.4104 -3.98231,2.6219 -6.46875,3.6875 -6.67231,2.8596 -15.63466,4.5625 -25.53125,4.5625 -9.896604,0 -18.858944,-1.7029 -25.531254,-4.5625 -2.4774,-1.06179 -4.65036,-2.2835 -6.4375,-3.6875 z m -0.0312,13.96884 0,8.2187 c 1.74023,2.6664 5.37846,4.6419 8.03125,5.8125 5.9952,2.5694 14.53538,4.25 23.968754,4.25 9.43336,0 17.97355,-1.6806 23.96875,-4.25 2.64895,-1.2441 6.27195,-2.9736 8.03125,-5.8438 l 0,-8.1874 c -1.79088,1.4103 -3.9821,2.653 -6.46875,3.7187 -6.67236,2.8596 -15.63466,4.5625 -25.53125,4.5625 -9.896604,0 -18.858944,-1.7029 -25.531254,-4.5625 -2.48665,-1.0657 -4.67787,-2.3083 -6.46875,-3.7187 z m 0,14 0,4.2812 c 0,7.732 14.33213,14 32.000004,14 17.66786,0 32,-6.268 32,-14 l 0,-4.2812 c -1.79088,1.4103 -3.9821,2.653 -6.46875,3.7187 -6.67236,2.8596 -15.63466,4.5625 -25.53125,4.5625 -9.896604,0 -18.858944,-1.7029 -25.531254,-4.5625 -2.48665,-1.0657 -4.67787,-2.3083 -6.46875,-3.7187 z"
       fill="#000000"
       stroke="none"
       marker="none"
       visibility="visible"
       display="inline"
       overflow="visible"
       id="path7336"
       inkscape:export-xdpi="21.18"
       inkscape:export-ydpi="21.18" />
  </g>
  <text
     x="0"
     y="115"
     fill="#000000"
     font-size="5px"
     font-weight="bold"
     font-family="'Helvetica Neue', Helvetica, Arial-Unicode, Arial, Sans-serif"
     id="text7338">Created by Rockicon</text>
  <text
     x="0"
     y="120"
     fill="#000000"
     font-size="5px"
     font-weight="bold"
     font-family="'Helvetica Neue', Helvetica, Arial-Unicode, Arial, Sans-serif"
     id="text7340">from the Noun Project</text>
</svg>
