<svg xmlns="http://www.w3.org/2000/svg" xmlns:xlink="http://www.w3.org/1999/xlink" viewBox="0 0 75 93.75" version="1.1" x="0px" y="0px"><g><path style="" d="M 57.554688 8.789062 L 57.554688 4.980469 C 57.554688 2.449219 55.496094 0.390625 52.964844 0.390625 C 50.429688 0.390625 48.375 2.449219 48.375 4.980469 L 48.375 8.789062 L 41.914062 8.789062 L 41.914062 4.980469 C 41.914062 2.449219 39.859375 0.390625 37.324219 0.390625 C 34.792969 0.390625 32.734375 2.449219 32.734375 4.980469 L 32.734375 8.789062 L 26.273438 8.789062 L 26.273438 4.980469 C 26.273438 2.449219 24.214844 0.390625 21.683594 0.390625 C 19.152344 0.390625 17.09375 2.449219 17.09375 4.980469 L 17.09375 8.789062 L 1.929688 8.789062 L 1.929688 73.828125 L 73.800781 73.828125 L 73.800781 8.789062 Z M 70.679688 20.898438 L 70.679688 35.296875 L 50.910156 35.296875 L 50.910156 20.898438 Z M 47.785156 53.375 L 27.453125 53.375 L 27.453125 38.421875 L 47.785156 38.421875 Z M 50.910156 38.421875 L 70.679688 38.421875 L 70.679688 53.375 L 50.910156 53.375 Z M 24.328125 53.375 L 5.054688 53.375 L 5.054688 38.421875 L 24.328125 38.421875 Z M 5.054688 56.5 L 24.328125 56.5 L 24.328125 70.703125 L 5.054688 70.703125 Z M 27.453125 56.5 L 47.785156 56.5 L 47.785156 70.703125 L 27.453125 70.703125 Z M 50.910156 56.5 L 70.679688 56.5 L 70.679688 70.703125 L 50.910156 70.703125 Z M 49.9375 4.980469 C 49.9375 3.3125 51.296875 1.953125 52.964844 1.953125 C 54.636719 1.953125 55.992188 3.3125 55.992188 4.980469 L 55.992188 14.550781 C 55.992188 16.21875 54.636719 17.578125 52.964844 17.578125 C 51.296875 17.578125 49.9375 16.222656 49.9375 14.550781 Z M 34.296875 4.980469 C 34.296875 3.3125 35.65625 1.953125 37.328125 1.953125 C 38.996094 1.953125 40.355469 3.3125 40.355469 4.980469 L 40.355469 14.550781 C 40.355469 16.21875 38.996094 17.578125 37.328125 17.578125 C 35.65625 17.578125 34.296875 16.222656 34.296875 14.550781 Z M 47.785156 20.898438 L 47.785156 35.296875 L 27.453125 35.296875 L 27.453125 20.898438 Z M 18.660156 4.980469 C 18.660156 3.3125 20.015625 1.953125 21.6875 1.953125 C 23.359375 1.953125 24.714844 3.3125 24.714844 4.980469 L 24.714844 14.550781 C 24.714844 16.21875 23.359375 17.578125 21.6875 17.578125 C 20.015625 17.578125 18.660156 16.222656 18.660156 14.550781 Z M 24.328125 20.898438 L 24.328125 35.296875 L 5.054688 35.296875 L 5.054688 20.898438 Z M 24.328125 20.898438 " stroke="none" fill-rule="nonzero" fill="rgb(0%,0%,0%)" fill-opacity="1"/></g><text x="0" y="90" fill="#000000" font-size="5px" font-weight="bold" font-family="'Helvetica Neue', Helvetica, Arial-Unicode, Arial, Sans-serif">Created by Lloyd Humphreys</text><text x="0" y="95" fill="#000000" font-size="5px" font-weight="bold" font-family="'Helvetica Neue', Helvetica, Arial-Unicode, Arial, Sans-serif">from the Noun Project</text></svg>