<?xml version="1.0" encoding="UTF-8" standalone="no"?>
<svg
   xmlns:dc="http://purl.org/dc/elements/1.1/"
   xmlns:cc="http://creativecommons.org/ns#"
   xmlns:rdf="http://www.w3.org/1999/02/22-rdf-syntax-ns#"
   xmlns:svg="http://www.w3.org/2000/svg"
   xmlns="http://www.w3.org/2000/svg"
   xmlns:sodipodi="http://sodipodi.sourceforge.net/DTD/sodipodi-0.dtd"
   xmlns:inkscape="http://www.inkscape.org/namespaces/inkscape"
   viewBox="0 0 1459.0906 1427.2711"
   version="1.1"
   x="0px"
   y="0px"
   id="svg2"
   inkscape:version="0.91 r13725"
   sodipodi:docname="field-barcode.svg"
   width="1459.0906"
   height="1427.2711">
  <metadata
     id="metadata16">
    <rdf:RDF>
      <cc:Work
         rdf:about="">
        <dc:format>image/svg+xml</dc:format>
        <dc:type
           rdf:resource="http://purl.org/dc/dcmitype/StillImage" />
        <dc:title></dc:title>
      </cc:Work>
    </rdf:RDF>
  </metadata>
  <defs
     id="defs14" />
  <sodipodi:namedview
     pagecolor="#ffffff"
     bordercolor="#666666"
     borderopacity="1"
     objecttolerance="10"
     gridtolerance="10"
     guidetolerance="10"
     inkscape:pageopacity="0"
     inkscape:pageshadow="2"
     inkscape:window-width="1920"
     inkscape:window-height="1056"
     id="namedview12"
     showgrid="false"
     fit-margin-top="0"
     fit-margin-left="0"
     fit-margin-right="0"
     fit-margin-bottom="0"
     inkscape:zoom="0.089702955"
     inkscape:cx="831.01352"
     inkscape:cy="2198.6719"
     inkscape:window-x="0"
     inkscape:window-y="24"
     inkscape:window-maximized="1"
     inkscape:current-layer="svg2" />
  <g
     transform="translate(-22.365809,694.25604)"
     id="g4">
    <path
       style="fill:#000000"
       d="m 45.176202,-353.8189 0,844.5868 78.183898,0 0,-844.5868 -78.183898,0 z m 143.504698,0 0,844.5868 150.7078,0 0,-844.5868 -150.7078,0 z m 170.7777,0 0,844.5868 14.3824,0 0,-844.5868 -14.3824,0 z m 34.9749,0 0,844.5868 15.9325,0 0,-844.5868 -15.9325,0 z m 30.3447,0 0,844.5868 15.9361,0 0,-844.5868 -15.9361,0 z m 43.7186,0 0,844.5868 96.7013,0 0,-844.5868 -96.7013,0 z m 130.1367,0 0,844.5868 46.2904,0 0,-844.5868 -46.2904,0 z m 92.583,0 0,844.5868 97.2109,0 0,-844.5868 -97.2109,0 z m 133.2193,0 0,844.5868 50.9253,0 0,-844.5868 -50.9253,0 z m 93.102,0 0,844.5868 92.5842,0 0,-844.5868 -92.5842,0 z m 115.733,0 0,844.5868 19.0186,0 0,-844.5868 -19.0186,0 z m 53.491,0 0,844.5868 19.0281,0 0,-844.5868 -19.0281,0 z m 53.497,0 0,844.5868 97.2109,0 0,-844.5868 -97.2109,0 z m 136.3017,0 0,844.5868 42.1827,0 0,-844.5868 -42.1827,0 z m 85.3882,0 0,844.5868 97.2119,0 0,-844.5868 -97.2119,0 z"
       id="path6"
       inkscape:connector-curvature="0" />
  </g>
  <text
     x="-0.07"
     y="1421.181"
     font-size="5px"
     font-weight="bold"
     id="text8"
     style="font-weight:bold;font-size:5px;font-family:'Helvetica Neue', Helvetica, Arial-Unicode, Arial, Sans-serif;fill:#000000">Created by Javier Cezhkovic</text>
  <text
     x="-0.07"
     y="1426.181"
     font-size="5px"
     font-weight="bold"
     id="text10"
     style="font-weight:bold;font-size:5px;font-family:'Helvetica Neue', Helvetica, Arial-Unicode, Arial, Sans-serif;fill:#000000">from the Noun Project</text>
</svg>
