<?xml version="1.0" encoding="UTF-8" standalone="no"?>
<svg
   xmlns:dc="http://purl.org/dc/elements/1.1/"
   xmlns:cc="http://creativecommons.org/ns#"
   xmlns:rdf="http://www.w3.org/1999/02/22-rdf-syntax-ns#"
   xmlns:svg="http://www.w3.org/2000/svg"
   xmlns="http://www.w3.org/2000/svg"
   xmlns:sodipodi="http://sodipodi.sourceforge.net/DTD/sodipodi-0.dtd"
   xmlns:inkscape="http://www.inkscape.org/namespaces/inkscape"
   version="1.1"
   viewBox="0 0 24 30"
   x="0px"
   y="0px"
   id="svg5433"
   inkscape:version="0.91 r13725"
   sodipodi:docname="field-reference.svg">
  <metadata
     id="metadata5445">
    <rdf:RDF>
      <cc:Work
         rdf:about="">
        <dc:format>image/svg+xml</dc:format>
        <dc:type
           rdf:resource="http://purl.org/dc/dcmitype/StillImage" />
      </cc:Work>
    </rdf:RDF>
  </metadata>
  <defs
     id="defs5443" />
  <sodipodi:namedview
     pagecolor="#ffffff"
     bordercolor="#666666"
     borderopacity="1"
     objecttolerance="10"
     gridtolerance="10"
     guidetolerance="10"
     inkscape:pageopacity="0"
     inkscape:pageshadow="2"
     inkscape:window-width="1855"
     inkscape:window-height="1056"
     id="namedview5441"
     showgrid="false"
     inkscape:zoom="7.8666667"
     inkscape:cx="12"
     inkscape:cy="15"
     inkscape:window-x="65"
     inkscape:window-y="24"
     inkscape:window-maximized="1"
     inkscape:current-layer="svg5433" />
  <path
     fill="#000000"
     d="M21.535 9.509l-1.42 1.414c-0.905 0.904-2.154 1.464-3.535 1.464-1.026 0-1.98-0.309-2.773-0.839l-2.242 2.275c0.516 0.775 0.824 1.728 0.824 2.753 0 1.382-0.559 2.633-1.464 3.54l-1.41 1.414c-0.906 0.907-2.157 1.468-3.54 1.468-2.763 0-5.003-2.24-5.003-5.003 0-1.38 0.559-2.63 1.463-3.536l1.42-1.414c0.905-0.904 2.154-1.464 3.535-1.464 1.026 0 1.98 0.309 2.773 0.839l2.242-2.275c-0.516-0.775-0.824-1.728-0.824-2.753 0-1.382 0.559-2.633 1.464-3.54l1.41-1.414c0.906-0.907 2.157-1.468 3.54-1.468 2.763 0 5.003 2.24 5.003 5.003 0 1.38-0.559 2.63-1.463 3.536zM5.265 14.459l-1.41 1.414c-0.573 0.547-0.929 1.317-0.929 2.171 0 1.657 1.343 3 3 3 0.853 0 1.622-0.356 2.168-0.927l1.421-1.415c0.536-0.541 0.867-1.285 0.867-2.107 0-0.473-0.109-0.919-0.304-1.317l-0.562 0.595c-0.181 0.182-0.433 0.295-0.71 0.295-0.553 0-1.002-0.449-1.002-1.002 0-0.276 0.112-0.526 0.292-0.707l0.58-0.577c-0.379-0.186-0.825-0.294-1.296-0.294-0.825 0-1.572 0.333-2.114 0.872zM20.115 3.852c-0.543-0.542-1.292-0.877-2.12-0.877s-1.577 0.335-2.12 0.877l-1.42 1.414c-0.536 0.541-0.867 1.285-0.867 2.107 0 0.473 0.109 0.92 0.304 1.317l0.562-0.595c0.181-0.182 0.433-0.295 0.71-0.295 0.553 0 1.002 0.449 1.002 1.002 0 0.276-0.112 0.526-0.292 0.707l-0.58 0.577c0.379 0.186 0.825 0.294 1.296 0.294 0.825 0 1.572-0.333 2.114-0.872l1.41-1.414c0.543-0.543 0.879-1.293 0.879-2.121s-0.336-1.579-0.879-2.121z"
     id="path5435"
     style="fill:#5fa2dd;fill-opacity:1"
     inkscape:export-xdpi="65.379997"
     inkscape:export-ydpi="65.379997" />
  <text
     x="0"
     y="39"
     fill="#000000"
     font-size="5px"
     font-weight="bold"
     font-family="'Helvetica Neue', Helvetica, Arial-Unicode, Arial, Sans-serif"
     id="text5437">Created by Travis Avery</text>
  <text
     x="0"
     y="44"
     fill="#000000"
     font-size="5px"
     font-weight="bold"
     font-family="'Helvetica Neue', Helvetica, Arial-Unicode, Arial, Sans-serif"
     id="text5439">from the Noun Project</text>
</svg>
