<?xml version="1.0" encoding="UTF-8" standalone="no"?>
<svg
   xmlns:dc="http://purl.org/dc/elements/1.1/"
   xmlns:cc="http://creativecommons.org/ns#"
   xmlns:rdf="http://www.w3.org/1999/02/22-rdf-syntax-ns#"
   xmlns:svg="http://www.w3.org/2000/svg"
   xmlns="http://www.w3.org/2000/svg"
   xmlns:sodipodi="http://sodipodi.sourceforge.net/DTD/sodipodi-0.dtd"
   xmlns:inkscape="http://www.inkscape.org/namespaces/inkscape"
   version="1.1"
   x="0px"
   y="0px"
   viewBox="0 0 100 100"
   enable-background="new 0 0 100 100"
   xml:space="preserve"
   id="svg2"
   inkscape:version="0.91 r13725"
   sodipodi:docname="field-text.svg"
   width="100"
   height="100"><metadata
     id="metadata16"><rdf:RDF><cc:Work
         rdf:about=""><dc:format>image/svg+xml</dc:format><dc:type
           rdf:resource="http://purl.org/dc/dcmitype/StillImage" /><dc:title></dc:title></cc:Work></rdf:RDF></metadata><defs
     id="defs14" /><sodipodi:namedview
     pagecolor="#ffffff"
     bordercolor="#666666"
     borderopacity="1"
     objecttolerance="10"
     gridtolerance="10"
     guidetolerance="10"
     inkscape:pageopacity="0"
     inkscape:pageshadow="2"
     inkscape:window-width="1920"
     inkscape:window-height="1056"
     id="namedview12"
     showgrid="false"
     inkscape:zoom="1.888"
     inkscape:cx="-21.504237"
     inkscape:cy="62.5"
     inkscape:window-x="0"
     inkscape:window-y="24"
     inkscape:window-maximized="1"
     inkscape:current-layer="svg2" /><path
     d="m 71.006689,80.58739 -44.239365,0 c -3.02253,0 -5.476245,2.4565 -5.476245,5.47903 0,3.02811 2.453715,5.47904 5.476245,5.47904 l 44.236577,0 c 3.025319,0 5.479034,-2.45093 5.479034,-5.47904 0,-3.02532 -2.450927,-5.47903 -5.476246,-5.47903 z"
     id="path4"
     inkscape:connector-curvature="0"
     style="fill:#000000" /><path
     d="m 73.064464,4.0063896 c -0.142204,0 -0.276043,0.03067 -0.412671,0.04183 -0.139415,-0.01115 -0.273254,-0.04183 -0.41267,-0.04183 l -46.695868,0 c -0.142204,0 -0.276043,0.03067 -0.41267,0.04183 -0.139416,-0.01115 -0.273255,-0.04183 -0.41267,-0.04183 -3.028107,0 -5.479034,2.450927 -5.479034,5.476246 l 0,8.7803954 c 0,3.025319 2.450927,5.476246 5.479034,5.476246 3.022531,0 5.476245,-2.450927 5.476245,-5.476246 l 0,-3.30415 13.344864,0 0,44.805392 -5.532012,0 c -3.022531,0 -5.476246,2.456503 -5.476246,5.479034 0,3.028107 2.453715,5.479033 5.476246,5.479033 l 22.022091,0 c 3.025319,0 5.479034,-2.450926 5.479034,-5.479033 0,-3.022531 -2.453715,-5.479034 -5.479034,-5.479034 l -5.5348,0 0,-44.805392 13.093915,0 0,3.30415 c 0,3.025319 2.453715,5.476246 5.479034,5.476246 3.025319,0 5.479034,-2.450927 5.479034,-5.476246 l 0,-8.7803954 c -0.0028,-3.025319 -2.456503,-5.476246 -5.481822,-5.476246 z"
     id="path6"
     inkscape:connector-curvature="0"
     style="fill:#000000" /></svg>