<?xml version="1.0" encoding="UTF-8" standalone="no"?>
<svg
   xmlns:dc="http://purl.org/dc/elements/1.1/"
   xmlns:cc="http://creativecommons.org/ns#"
   xmlns:rdf="http://www.w3.org/1999/02/22-rdf-syntax-ns#"
   xmlns:svg="http://www.w3.org/2000/svg"
   xmlns="http://www.w3.org/2000/svg"
   xmlns:sodipodi="http://sodipodi.sourceforge.net/DTD/sodipodi-0.dtd"
   xmlns:inkscape="http://www.inkscape.org/namespaces/inkscape"
   version="1.1"
   x="0px"
   y="0px"
   viewBox="0 0 100 100"
   id="svg2"
   inkscape:version="0.91 r13725"
   sodipodi:docname="field-calculated.svg"
   width="100"
   height="100"
   inkscape:export-filename="/home/alex/dev/activityinfo/ui/app/src/main/java/org/activityinfo/ui/client/icons/field-calculated.png"
   inkscape:export-xdpi="14.4"
   inkscape:export-ydpi="14.4">
  <metadata
     id="metadata16">
    <rdf:RDF>
      <cc:Work
         rdf:about="">
        <dc:format>image/svg+xml</dc:format>
        <dc:type
           rdf:resource="http://purl.org/dc/dcmitype/StillImage" />
        <dc:title />
      </cc:Work>
    </rdf:RDF>
  </metadata>
  <defs
     id="defs14" />
  <sodipodi:namedview
     pagecolor="#ffffff"
     bordercolor="#666666"
     borderopacity="1"
     objecttolerance="10"
     gridtolerance="10"
     guidetolerance="10"
     inkscape:pageopacity="0"
     inkscape:pageshadow="2"
     inkscape:window-width="1920"
     inkscape:window-height="1056"
     id="namedview12"
     showgrid="false"
     inkscape:zoom="1.888"
     inkscape:cx="-39.777542"
     inkscape:cy="62.5"
     inkscape:window-x="0"
     inkscape:window-y="24"
     inkscape:window-maximized="1"
     inkscape:current-layer="svg2" />
  <g
     transform="translate(-0.52966102,-952.46811)"
     id="g4">
    <path
       style="color:#000000;text-indent:0;text-transform:none;direction:ltr;block-progression:tb;baseline-shift:baseline;display:inline;overflow:visible;visibility:visible;fill:#000000;fill-opacity:1;stroke:none;marker:none;enable-background:accumulate"
       d="m 25,958.36218 c -3.8434,0 -7,3.1566 -7,7 l 0,74.00002 c 0,3.8434 3.1566,7 7,7 l 50,0 c 3.8434,0 7,-3.1566 7,-7 l 0,-74.00002 c 0,-3.8434 -3.1566,-7 -7,-7 l -50,0 z m 0,4 50,0 c 1.6966,0 3,1.3034 3,3 l 0,74.00002 c 0,1.6966 -1.3034,3 -3,3 l -50,0 c -1.6966,0 -3,-1.3034 -3,-3 l 0,-74.00002 c 0,-1.6966 1.3034,-3 3,-3 z m 4,5 c -1.0744,0.018 -1.9754,1.0991 -2,2 l 0,15 c 10e-5,1.0472 0.9528,1.9999 2,2 l 42,0 c 1.0472,-10e-5 1.9999,-0.9528 2,-2 l 0,-15 c -1e-4,-1.0472 -0.9528,-1.9999 -2,-2 l -42,0 z m 2,4 38,0 0,11 -38,0 0,-11 z m -2,20 c -1.1492,0 -1.9754,1.0991 -2,2 l 0,8.00002 c 10e-5,1.0472 0.9528,1.9999 2,2 l 8,0 c 1.0472,-10e-5 1.9999,-0.9528 2,-2 l 0,-8.00002 c -1e-4,-1.0472 -0.9528,-1.9999 -2,-2 l -8,0 z m 17,0 c -1.1492,0 -1.9754,1.0991 -2,2 l 0,8.00002 c 1e-4,1.0472 0.9528,1.9999 2,2 l 8,0 c 1.0472,-10e-5 1.9999,-0.9528 2,-2 l 0,-8.00002 c -1e-4,-1.0472 -0.9528,-1.9999 -2,-2 l -8,0 z m 17,0 c -1.1492,0 -1.9754,1.0991 -2,2 l 0,8.00002 c 1e-4,1.0472 0.9528,1.9999 2,2 l 8,0 c 1.0472,-10e-5 1.9999,-0.9528 2,-2 l 0,-8.00002 c -1e-4,-1.0472 -0.9528,-1.9999 -2,-2 l -8,0 z m -32,4 4,0 0,4 -4,0 0,-4 z m 17,0 4,0 0,4 -4,0 0,-4 z m 17,0 4,0 0,4 -4,0 0,-4 z m -36,13.00002 c -1.1492,0 -1.9754,1.0991 -2,2 l 0,8 c 10e-5,1.0472 0.9528,1.9999 2,2 l 8,0 c 1.0472,-10e-5 1.9999,-0.9528 2,-2 l 0,-8 c -1e-4,-1.0472 -0.9528,-1.9999 -2,-2 l -8,0 z m 17,0 c -1.1492,0 -1.9754,1.0991 -2,2 l 0,8 c 1e-4,1.0472 0.9528,1.9999 2,2 l 8,0 c 1.0472,-10e-5 1.9999,-0.9528 2,-2 l 0,-8 c -1e-4,-1.0472 -0.9528,-1.9999 -2,-2 l -8,0 z m 17,0 c -1.1174,0 -1.9754,1.0991 -2,2 l 0,25 c 1e-4,1.0472 0.9528,1.9999 2,2 l 8,0 c 1.0472,-10e-5 1.9999,-0.9528 2,-2 l 0,-25 c -1e-4,-1.0472 -0.9528,-1.9999 -2,-2 l -8,0 z m -32,4 4,0 0,4 -4,0 0,-4 z m 17,0 4,0 0,4 -4,0 0,-4 z m 17,0 4,0 0,21 -4,0 0,-21 z m -36,13 c -1.1492,0 -1.9754,1.0991 -2,2 l 0,8 c 10e-5,1.0472 0.9528,1.9999 2,2 l 8,0 c 1.0472,-10e-5 1.9999,-0.9528 2,-2 l 0,-8 c -1e-4,-1.0472 -0.9528,-1.9999 -2,-2 l -8,0 z m 17,0 c -1.1492,0 -1.9754,1.0991 -2,2 l 0,8 c 1e-4,1.0472 0.9528,1.9999 2,2 l 8,0 c 1.0472,-10e-5 1.9999,-0.9528 2,-2 l 0,-8 c -1e-4,-1.0472 -0.9528,-1.9999 -2,-2 l -8,0 z m -15,4 4,0 0,4 -4,0 0,-4 z m 17,0 4,0 0,4 -4,0 0,-4 z"
       visibility="visible"
       display="inline"
       overflow="visible"
       id="path6"
       inkscape:connector-curvature="0" />
  </g>
</svg>
