<?xml version="1.0" encoding="UTF-8" standalone="no"?>
<svg
   xmlns:dc="http://purl.org/dc/elements/1.1/"
   xmlns:cc="http://creativecommons.org/ns#"
   xmlns:rdf="http://www.w3.org/1999/02/22-rdf-syntax-ns#"
   xmlns:svg="http://www.w3.org/2000/svg"
   xmlns="http://www.w3.org/2000/svg"
   xmlns:sodipodi="http://sodipodi.sourceforge.net/DTD/sodipodi-0.dtd"
   xmlns:inkscape="http://www.inkscape.org/namespaces/inkscape"
   version="1.1"
   x="0px"
   y="0px"
   viewBox="0 0 32 40"
   enable-background="new 0 0 32 32"
   xml:space="preserve"
   id="svg4793"
   inkscape:version="0.91 r13725"
   sodipodi:docname="field-enum.svg"><metadata
     id="metadata4805"><rdf:RDF><cc:Work
         rdf:about=""><dc:format>image/svg+xml</dc:format><dc:type
           rdf:resource="http://purl.org/dc/dcmitype/StillImage" /></cc:Work></rdf:RDF></metadata><defs
     id="defs4803" /><sodipodi:namedview
     pagecolor="#ffffff"
     bordercolor="#666666"
     borderopacity="1"
     objecttolerance="10"
     gridtolerance="10"
     guidetolerance="10"
     inkscape:pageopacity="0"
     inkscape:pageshadow="2"
     inkscape:window-width="1920"
     inkscape:window-height="1056"
     id="namedview4801"
     showgrid="false"
     inkscape:zoom="5.9"
     inkscape:cx="16"
     inkscape:cy="20"
     inkscape:window-x="0"
     inkscape:window-y="24"
     inkscape:window-maximized="1"
     inkscape:current-layer="svg4793" /><path
     d="M8,2H4C2.9,2,2,2.9,2,4v4c0,1.1,0.9,2,2,2h4c1.1,0,2-0.9,2-2V4C10,2.9,9.1,2,8,2z M8,8H4V4h4V8z M8,12H4c-1.1,0-2,0.9-2,2v4  c0,1.1,0.9,2,2,2h4c1.1,0,2-0.9,2-2v-4C10,12.9,9.1,12,8,12z M8,18H4v-4h4V18z M8,22H4c-1.1,0-2,0.9-2,2v4c0,1.1,0.9,2,2,2h4  c1.1,0,2-0.9,2-2v-4C10,22.9,9.1,22,8,22z M8,28H4v-4h4V28z M14,8h14c1.104,0,2-0.896,2-2s-0.896-2-2-2H14c-1.104,0-2,0.896-2,2  S12.896,8,14,8z M28,14H14c-1.104,0-2,0.896-2,2s0.896,2,2,2h14c1.104,0,2-0.896,2-2S29.104,14,28,14z M28,24H14  c-1.104,0-2,0.896-2,2s0.896,2,2,2h14c1.104,0,2-0.896,2-2S29.104,24,28,24z"
     id="path4795"
     style="fill:#5fa2dd;fill-opacity:1"
     inkscape:export-xdpi="51.43"
     inkscape:export-ydpi="51.43" /></svg>