<svg xmlns="http://www.w3.org/2000/svg" xmlns:xlink="http://www.w3.org/1999/xlink" xml:space="preserve" version="1.1" style="shape-rendering:geometricPrecision;text-rendering:geometricPrecision;image-rendering:optimizeQuality;" viewBox="0 0 68 136.25" x="0px" y="0px" fill-rule="evenodd" clip-rule="evenodd"><defs><style type="text/css">
   
    .fil0 {fill:black;fill-rule:nonzero}
   
  </style></defs><g><path class="fil0" d="M21 34l0 0c0,7 6,13 13,13 7,0 13,-6 13,-13 0,-7 -6,-13 -13,-13 -7,0 -13,6 -13,13z"/><path class="fil0" d="M34 0c-19,0 -34,15 -34,34 0,34 34,75 34,75 0,0 34,-41 34,-75 0,-19 -15,-34 -34,-34zm0 55l0 0c-12,0 -21,-10 -21,-21 0,-12 9,-21 21,-21 11,0 21,9 21,21 0,11 -10,21 -21,21z"/></g><text x="0" y="124" fill="#000000" font-size="5px" font-weight="bold" font-family="'Helvetica Neue', Helvetica, Arial-Unicode, Arial, Sans-serif">Created by Ivan Luiz</text><text x="0" y="129" fill="#000000" font-size="5px" font-weight="bold" font-family="'Helvetica Neue', Helvetica, Arial-Unicode, Arial, Sans-serif">from the Noun Project</text></svg>