<?xml version="1.0" encoding="UTF-8" standalone="no"?>
<!-- Generated by IcoMoon.io -->

<svg
   xmlns:dc="http://purl.org/dc/elements/1.1/"
   xmlns:cc="http://creativecommons.org/ns#"
   xmlns:rdf="http://www.w3.org/1999/02/22-rdf-syntax-ns#"
   xmlns:svg="http://www.w3.org/2000/svg"
   xmlns="http://www.w3.org/2000/svg"
   xmlns:sodipodi="http://sodipodi.sourceforge.net/DTD/sodipodi-0.dtd"
   xmlns:inkscape="http://www.inkscape.org/namespaces/inkscape"
   version="1.1"
   width="32"
   height="32"
   viewBox="0 0 32 32"
   id="svg2"
   inkscape:version="0.91 r13725"
   sodipodi:docname="form.svg"
   inkscape:export-filename="/home/alex/dev/activityinfo/ui/app/src/main/java/org/activityinfo/ui/client/icons/form.png"
   inkscape:export-xdpi="45"
   inkscape:export-ydpi="45">
  <metadata
     id="metadata12">
    <rdf:RDF>
      <cc:Work
         rdf:about="">
        <dc:format>image/svg+xml</dc:format>
        <dc:type
           rdf:resource="http://purl.org/dc/dcmitype/StillImage" />
      </cc:Work>
    </rdf:RDF>
  </metadata>
  <defs
     id="defs10" />
  <sodipodi:namedview
     pagecolor="#ffffff"
     bordercolor="#666666"
     borderopacity="1"
     objecttolerance="10"
     gridtolerance="10"
     guidetolerance="10"
     inkscape:pageopacity="0"
     inkscape:pageshadow="2"
     inkscape:window-width="1920"
     inkscape:window-height="1056"
     id="namedview8"
     showgrid="false"
     inkscape:zoom="7.375"
     inkscape:cx="16"
     inkscape:cy="16"
     inkscape:window-x="0"
     inkscape:window-y="24"
     inkscape:window-maximized="1"
     inkscape:current-layer="svg2" />
  <g
     id="g4" />
  <path
     d="M27.879 5.879l-3.757-3.757c-1.167-1.167-3.471-2.121-5.121-2.121h-14c-1.65 0-3 1.35-3 3v26c0 1.65 1.35 3 3 3h22c1.65 0 3-1.35 3-3v-18c0-1.65-0.955-3.955-2.121-5.121zM20 4.236c0.069 0.025 0.139 0.053 0.211 0.082 0.564 0.234 0.956 0.505 1.082 0.631l3.757 3.757c0.126 0.126 0.397 0.517 0.631 1.082 0.030 0.072 0.057 0.143 0.082 0.211h-5.764v-5.764zM26 28h-20v-24h12v8h8v16zM8 16h16v2h-16zM8 20h16v2h-16zM8 24h16v2h-16z"
     fill="#000000"
     id="path6"
     style="fill:#5fa2dd;fill-opacity:1" />
</svg>
